<svg width="320" height="320" viewBox="0 0 320 320" fill="none" xmlns="http://www.w3.org/2000/svg" role="img" aria-label="맞춤 공지 설정 안내 이미지">
  <rect width="320" height="320" fill="white"/>
  <path d="M120 50H201L320 273H2L120 50Z" fill="url(#paint0_linear_3110_1874)"/>
  <path d="M165.986 117C167.091 117 168.025 117.817 168.172 118.912L174.62 166.917L215.088 173.828C216.183 173.975 217 174.909 217 176.014C217 177.119 216.183 178.053 215.088 178.2L174.62 185.111L156.2 233.088C156.053 234.183 155.119 235 154.014 235C152.909 235 151.975 234.183 151.828 233.088L149.38 192.111L102.912 185.2C101.817 185.053 101 184.119 101 183.014C101 181.909 101.817 180.975 102.912 180.828L149.38 168.917L163.8 118.912C163.947 117.817 164.881 117 165.986 117Z" fill="#4A4D50"/>
  <defs>
    <linearGradient id="paint0_linear_3110_1874" x1="161" y1="50" x2="161" y2="273" gradientUnits="userSpaceOnUse">
      <stop stop-color="#78F5D6"/>
      <stop offset="1" stop-color="#DFFFF6"/>
    </linearGradient>
  </defs>
</svg>
