<svg width="393" height="393" viewBox="0 0 393 393" fill="none" xmlns="http://www.w3.org/2000/svg">
<rect width="393" height="393" fill="#FAFBFD"/>
<g transform="translate(0 46)">
<path d="M177.799 258.537C176.656 258.495 175.377 258.046 174.232 257.913C144.645 254.486 120.43 235.306 107.16 210.696C96.3282 190.606 93.0102 166.794 96.5234 144.448C97.5319 138.304 99.0532 132.245 101.073 126.327C115.83 82.4538 160.751 46.5694 211.783 57.7448C212.986 58.0081 214.352 58.1164 215.52 58.466C219.612 59.1075 223.543 59.7364 227.545 60.7164C250.914 66.4412 270.748 82.3174 282.616 101.872C283.193 102.823 283.775 103.794 284.28 104.783C287.421 109.591 292.262 121.668 293.567 127.174C295.07 131.798 296.684 140.826 297.066 145.568C297.761 152.62 297.698 159.719 296.876 166.759C296.83 167.166 296.528 169.813 296.448 170.036C295.979 174.573 294.591 180.278 293.442 184.697C293.244 185.458 292.69 187.435 292.412 188.135C290.221 194.599 287.862 200.644 284.53 206.67C284.128 207.393 283.054 209.442 282.591 210.074C269.569 232.366 248.108 250.459 221.884 257.605C207.512 261.433 192.34 261.754 177.799 258.537Z" fill="#31FFCC"/>
<path d="M265.407 209.182C268.196 209.423 282.052 208.818 283.091 209.381C269.979 231.979 248.369 250.32 221.964 257.564C207.491 261.443 192.214 261.769 177.572 258.508C178.425 258.348 180.017 258.481 180.952 258.481C182.516 258.481 184.074 258.501 185.642 258.445C191.966 258.227 198.246 257.346 204.367 255.821C230.579 249.187 251.978 231.135 265.407 209.182Z" fill="#008E6B"/>
<path d="M215.153 58.4004C219.282 59.0354 223.25 59.6581 227.287 60.6283C250.868 66.296 270.881 82.0138 282.856 101.374C283.438 102.315 284.026 103.276 284.535 104.255L284.304 104.475C283.115 104.67 281.504 104.509 280.278 104.493C277.068 104.453 273.622 104.013 270.45 103.998C261.831 86.6317 246.539 71.6305 227.889 63.2479C224.37 61.6914 220.756 60.3239 217.067 59.1524C216.456 58.9529 215.59 58.7805 215.153 58.4004Z" fill="#008E6B"/>
<path d="M281.289 145.309C286.448 145.321 292.032 145.822 297.07 145.656C297.76 152.6 297.698 159.592 296.881 166.525C296.836 166.925 296.536 169.532 296.457 169.752L296.341 169.601C294.877 169.188 287.106 169.218 285.24 169.171C283.719 169.132 281.818 169.036 280.199 168.924C281.278 160.658 281.974 153.757 281.289 145.309Z" fill="#79FFDE"/>
<path d="M274.781 187.404C278.588 187.66 282.525 187.59 286.343 187.697C287.927 187.741 290.222 187.691 291.763 187.888C289.566 194.147 287.2 200.001 283.857 205.835C283.455 206.536 282.377 208.52 281.913 209.131C280.878 208.594 267.077 209.171 264.299 208.941C268.617 202.119 272.132 194.899 274.781 187.404Z" fill="#79FFDE"/>
<path d="M270.08 104.57C273.208 104.585 276.605 105.011 279.771 105.05C280.979 105.065 282.568 105.221 283.74 105.032L283.968 104.82C287.093 109.429 291.909 121.006 293.207 126.283C292.472 126.34 288.789 126.215 287.914 126.162C284.762 125.969 281.222 126.001 278.14 125.789C277.987 125.245 277.973 124.715 277.789 124.109C275.86 117.783 273.439 110.392 270.08 104.57Z" fill="#79FFDE"/>
<path d="M280.298 168.395C281.872 168.509 283.72 168.606 285.198 168.646C287.012 168.694 294.564 168.663 295.987 169.085L296.1 169.238C295.647 173.793 294.307 179.519 293.199 183.954C293.008 184.719 292.472 186.703 292.204 187.406C290.722 187.201 288.513 187.253 286.989 187.208C283.315 187.096 279.526 187.169 275.863 186.904C278.039 180.218 279.01 175.227 280.298 168.395Z" fill="#008E6B"/>
<path d="M278.754 126.297C281.876 126.519 285.462 126.486 288.656 126.687C289.543 126.744 293.273 126.874 294.018 126.814C295.533 131.455 297.16 140.516 297.545 145.274C292.431 145.443 286.763 144.933 281.527 144.92C281.436 139.046 279.945 132.053 278.754 126.297Z" fill="#008E6B"/>
<path d="M177.463 235.396L177.427 235.545C176.366 235.724 169.664 234.518 168.416 234.225C149.509 229.805 134.465 217.512 124.876 201.828C101.171 163.054 115.61 108.081 157.217 85.5779C172.193 77.478 190.578 74.7027 207.386 79.0322C214.542 80.8782 221.324 83.8186 227.46 87.7353C228.183 88.1987 229.679 89.0487 230.062 89.6804C230.347 90.0028 232.479 91.2673 233.086 91.7424C251.194 105.915 259.965 127.638 260.842 149.375C261.799 173.089 252.653 196.91 235.181 214.178C222.616 226.602 204.874 235.391 186.375 235.861C183.091 235.945 180.702 235.742 177.463 235.396Z" fill="#8DFFE3"/>
<path d="M178.232 236.125L178.195 236.274C177.13 236.454 170.4 235.244 169.146 234.951C150.159 230.522 135.052 218.205 125.422 202.49C101.617 163.638 116.117 108.555 157.9 86.0071C172.939 77.891 191.402 75.1102 208.282 79.4484C215.468 81.298 222.279 84.2444 228.441 88.1689C229.167 88.6332 230.669 89.4849 231.054 90.1179C227.731 88.4001 224.644 86.8982 221.083 85.5945C207.938 80.8273 193.476 80.2808 179.964 84.041C159.403 89.5926 142.858 103.847 132.667 121.184C120.719 141.516 117.783 165.429 124.493 187.77C132.018 212.002 150.971 231.733 178.232 236.125Z" fill="#008E6B"/>
</g>
</svg>
